<svg id="Layer_1" enable-background="new 0 0 512 512" height="512" viewBox="0 0 512 512" width="512" xmlns="http://www.w3.org/2000/svg"><g><path d="m346 0c-91.532 0-166 74.468-166 166s74.468 166 166 166 166-74.468 166-166-74.468-166-166-166zm0 302c-74.99 0-136-61.01-136-136s61.01-136 136-136 136 61.01 136 136-61.01 136-136 136z"/><path d="m346 76.388c-49.412 0-89.612 40.2-89.612 89.612s40.2 89.611 89.612 89.611 89.611-40.199 89.611-89.611-40.199-89.612-89.611-89.612zm0 149.223c-32.87 0-59.612-26.741-59.612-59.611s26.742-59.612 59.612-59.612 59.612 26.742 59.612 59.612-26.742 59.611-59.612 59.611z"/><path d="m192.107 319.894c-5.857-5.857-15.355-5.857-21.213 0l-166.5 166.5c-5.858 5.857-5.858 15.355 0 21.213 2.929 2.928 6.767 4.393 10.606 4.393s7.678-1.465 10.606-4.394l166.5-166.5c5.859-5.857 5.859-15.355.001-21.212z"/><path d="m89.073 353.073c3.839 0 7.678-1.465 10.606-4.394l69.295-69.295c5.858-5.857 5.858-15.355 0-21.213-5.857-5.857-15.355-5.857-21.213 0l-69.295 69.295c-5.858 5.857-5.858 15.355 0 21.213 2.93 2.93 6.769 4.394 10.607 4.394z"/><path d="m194.365 381.276-66.045 66.045c-5.858 5.857-5.858 15.355 0 21.213 2.929 2.929 6.768 4.394 10.606 4.394s7.678-1.465 10.606-4.394l66.045-66.045c5.858-5.857 5.858-15.355 0-21.213-5.856-5.858-15.354-5.858-21.212 0z"/></g></svg>