<svg id="Capa_1" enable-background="new 0 0 512 512" height="512" viewBox="0 0 512 512" width="512" xmlns="http://www.w3.org/2000/svg"><path d="m437.02 74.98c-48.353-48.351-112.64-74.98-181.02-74.98s-132.667 26.629-181.02 74.98c-48.351 48.353-74.98 112.64-74.98 181.02s26.629 132.667 74.98 181.02c48.353 48.351 112.64 74.98 181.02 74.98s132.667-26.629 181.02-74.98c48.351-48.353 74.98-112.64 74.98-181.02s-26.629-132.667-74.98-181.02zm44.525 166.795h-137.385c1.665-27.567 8.167-54.237 19.426-79.46 11.7-26.211 27.968-49.673 48.387-69.861 1.289 1.231 2.568 2.476 3.832 3.74 39.316 39.315 62.346 90.567 65.74 145.581zm-145.226 120.422c12.834 28.658 30.487 54.393 52.541 76.669-34.386 25.094-74.963 39.84-117.86 42.632v-209.723h43.199c1.86 31.367 9.265 61.718 22.12 90.422zm-160.687-212.504c-12.832-28.616-30.466-54.315-52.491-76.56 34.386-25.094 74.962-39.838 117.859-42.631v211.273h-43.098c-1.707-31.959-9.173-62.873-22.27-92.082zm138.467 92.082h-43.099v-211.273c42.899 2.793 83.477 17.539 117.864 42.635-22.131 22.354-39.831 48.185-52.672 76.95-12.987 29.094-20.394 59.875-22.093 91.688zm-116.298 30h43.199v209.723c-42.898-2.793-83.475-17.538-117.861-42.633 22.07-22.292 39.733-48.047 52.568-76.726 12.839-28.687 20.235-59.019 22.094-90.364zm-101.607-175.581c1.264-1.264 2.542-2.508 3.831-3.739 20.324 20.092 36.539 43.433 48.233 69.512 11.355 25.324 17.91 52.111 19.582 79.808h-137.385c3.394-55.014 26.424-106.266 65.739-145.581zm-65.645 175.581h137.19c-1.817 27.091-8.313 53.301-19.415 78.109-11.697 26.136-27.934 49.528-48.299 69.661-1.289-1.23-2.567-2.475-3.831-3.739-38.946-38.946-61.917-89.604-65.645-144.031zm385.257 144.031c-1.264 1.264-2.543 2.509-3.831 3.739-20.351-20.119-36.58-43.493-48.276-69.61-11.116-24.823-17.62-51.051-19.438-78.161h137.19c-3.728 54.428-26.699 105.086-65.645 144.032z"/></svg>