<svg id="Capa_1" enable-background="new 0 0 512 512" height="512" viewBox="0 0 512 512" width="512" xmlns="http://www.w3.org/2000/svg"><path id="XMLID_272_" d="m437.02 74.98c-48.353-48.351-112.64-74.98-181.02-74.98s-132.667 26.629-181.02 74.98c-48.351 48.353-74.98 112.64-74.98 181.02s26.629 132.667 74.98 181.02c48.353 48.351 112.64 74.98 181.02 74.98s132.667-26.629 181.02-74.98c48.351-48.353 74.98-112.64 74.98-181.02s-26.629-132.667-74.98-181.02zm-407.02 181.02c0-57.102 21.297-109.316 56.352-149.142 37.143 45.142 57.438 101.499 57.438 160.409 0 53.21-16.914 105.191-47.908 148.069-40.693-40.891-65.882-97.226-65.882-159.336zm88.491 179.221c35.75-48.412 55.3-107.471 55.3-167.954 0-66.866-23.372-130.794-66.092-181.661 39.718-34.614 91.603-55.606 148.301-55.606 56.585 0 108.376 20.906 148.064 55.396-42.834 50.9-66.269 114.902-66.269 181.872 0 60.556 19.605 119.711 55.448 168.158-38.077 29.193-85.665 46.574-137.243 46.574-51.698 0-99.388-17.461-137.509-46.779zm297.392-19.645c-31.104-42.922-48.088-95.008-48.088-148.309 0-59.026 20.367-115.47 57.638-160.651 35.182 39.857 56.567 92.166 56.567 149.384 0 62.23-25.284 118.665-66.117 159.576z"/></svg>