<?xml version="1.0" encoding="iso-8859-1"?>
<!-- Generator: Adobe Illustrator 19.0.0, SVG Export Plug-In . SVG Version: 6.00 Build 0)  -->
<svg version="1.1" id="Capa_1" xmlns="http://www.w3.org/2000/svg" xmlns:xlink="http://www.w3.org/1999/xlink" x="0px" y="0px"
	 viewBox="0 0 512 512" style="enable-background:new 0 0 512 512;" xml:space="preserve">
<g>
	<g>
		<path d="M256,0C114.488,0,0,115.636,0,256c0,140.942,115.05,256,256,256c140.959,0,256-115.049,256-256
			C512,115.188,397.013,0,256,0z M282.925,31.611c32.287,3.85,62.504,14.529,89.163,30.555
			c-74.218,38.929-123.281,101.249-130.473,184.428c-32.572,16.538-61.416,24.323-90.169,24.402
			C145.729,172.272,196.399,79.365,282.925,31.611z M229.091,31.609C159.678,86.86,117.063,173.878,121.314,268.917
			c-32.431-4.561-63.548-16.512-90.248-34.829C41.263,128.599,124.28,44.101,229.091,31.609z M61.921,371.673
			c-18.159-30.351-29.4-65.29-31.536-102.632c32.057,18.323,68.491,29.209,105.789,31.501c0.012,0.001,0.025,0.001,0.037,0.003
			c37.409,2.292,74.107-4.046,121.021-28.246c22.17,8.157,42.31,21.161,59.947,38.378C277.616,360.982,215.555,391,151,391
			C120.01,391,89.313,384.318,61.921,371.673z M256,482c-62.889,0-119.85-25.83-160.861-67.425C113.332,418.809,132.126,421,151,421
			c72.482,0,140.865-32.462,186.284-87.458c21.741,28.708,38.201,65.172,48.079,107.664C348.689,466.898,304.078,482,256,482z
			 M410.979,420.332c-20.812-75.662-65.81-145.717-139.144-174.579c2.412-23.478,8.541-44.15,17.286-62.333
			c82.544,12.173,152.442,69.495,180.071,147.577C457.086,365.309,436.925,395.849,410.979,420.332z M305.578,155.83
			c25.477-35.214,61.21-58.616,94.349-73.944C450.028,123.373,482,186.022,482,256c0,9.156-0.562,18.181-1.625,27.055
			C444.16,217.762,380.008,170.506,305.578,155.83z"/>
	</g>
</g>
<g>
</g>
<g>
</g>
<g>
</g>
<g>
</g>
<g>
</g>
<g>
</g>
<g>
</g>
<g>
</g>
<g>
</g>
<g>
</g>
<g>
</g>
<g>
</g>
<g>
</g>
<g>
</g>
<g>
</g>
</svg>
