<?xml version="1.0" encoding="iso-8859-1"?>
<!-- Generator: Adobe Illustrator 19.0.0, SVG Export Plug-In . SVG Version: 6.00 Build 0)  -->
<svg version="1.1" id="Capa_1" xmlns="http://www.w3.org/2000/svg" xmlns:xlink="http://www.w3.org/1999/xlink" x="0px" y="0px"
	 viewBox="0 0 512 512" style="enable-background:new 0 0 512 512;" xml:space="preserve">
<g>
	<g>
		<path d="M437.02,74.98C388.667,26.629,324.38,0,256,0S123.333,26.629,74.98,74.98C26.629,123.333,0,187.62,0,256
			s26.629,132.667,74.98,181.02C123.333,485.371,187.62,512,256,512s132.667-26.629,181.02-74.98
			C485.371,388.667,512,324.38,512,256S485.371,123.333,437.02,74.98z M443.534,130.008c18.767,27.843,31.488,60.075,36.304,94.801
			l-2.882,2.492l-56.512-32.398l13.548-63.672L443.534,130.008z M338.767,45.695c32.165,12.702,60.735,32.588,83.738,57.66
			c-8.874,3.495-15.646,11.244-17.693,20.862l-13.88,65.233c-0.169,0.796-0.302,1.593-0.403,2.389l-40.147,17.927l-74.214-54.033
			c-1.65-1.202-3.384-2.223-5.168-3.096v-43.975c0.686-0.417,1.359-0.863,2.018-1.342l53.904-39.271
			C334.226,62.727,338.459,54.404,338.767,45.695z M205.881,326.804l-28.484-87.818c-0.572-1.763,0.051-3.681,1.55-4.771
			l74.537-54.229c1.504-1.094,3.523-1.093,5.026,0.001l74.544,54.272c1.499,1.091,2.121,3.009,1.549,4.771l-28.483,87.774
			c-0.573,1.766-2.206,2.953-4.063,2.953h-92.113v0C208.087,329.757,206.454,328.57,205.881,326.804z M205.981,35.589
			C222.077,31.937,238.816,30,256,30c17.18,0,33.915,1.937,50.008,5.586l2.613,8.678l-52.614,38.332l-52.625-38.391L205.981,35.589z
			 M173.24,45.691c0.325,8.681,4.546,16.974,11.826,22.286l53.913,39.331c0.66,0.481,1.335,0.928,2.022,1.347v43.978
			c-1.784,0.872-3.516,1.893-5.166,3.093l-74.254,54.022l-40.109-17.91c-0.102-0.796-0.234-1.593-0.403-2.389l-13.88-65.232
			c-2.047-9.618-8.818-17.367-17.693-20.862C112.5,78.282,141.072,58.395,173.24,45.691z M68.466,130.008l9.542,1.223l13.548,63.672
			l-56.511,32.398l-2.883-2.492C36.978,190.083,49.699,157.851,68.466,130.008z M64.338,375.618
			c-21.56-34.421-34.113-75.028-34.324-118.505c1.623,0.279,3.267,0.425,4.915,0.425c4.93,0,9.885-1.257,14.355-3.819l57.896-33.192
			c0.708-0.406,1.391-0.84,2.053-1.296l37.999,16.968c-0.168,3.997,0.339,8.068,1.629,12.045l28.484,87.818
			c0.258,0.796,0.552,1.571,0.862,2.337l-26.804,34.195c-0.799-0.094-1.606-0.159-2.422-0.187l-66.694-2.304
			C75.705,369.883,69.434,371.925,64.338,375.618z M82.042,400.112l65.095,2.249l17.054,60.132
			C132.214,448.219,104.136,426.735,82.042,400.112z M334.877,393.396l-18.198,64.162c-1.532,5.4-1.403,10.978,0.131,16.122
			C297.453,479.095,277.061,482,256,482c-21.51,0-42.325-3.023-62.049-8.662c1.437-5.048,1.521-10.499,0.023-15.779l-18.197-64.162
			c-0.222-0.783-0.478-1.55-0.759-2.301l25.592-32.649c2.985,0.841,6.113,1.31,9.334,1.31h92.113c2.824,0,5.583-0.345,8.233-0.997
			l25.346,32.335C335.354,391.846,335.099,392.613,334.877,393.396z M346.271,463.166l17.246-60.806l65.102-2.249
			c0.141,0.354,0.305,0.691,0.469,1.029C406.772,427.71,378.469,449.082,346.271,463.166z M428.369,370.102l-66.696,2.304
			c-0.815,0.028-1.622,0.093-2.421,0.187l-25.942-33.095c0.498-1.115,0.962-2.252,1.346-3.435l28.483-87.775
			c1.295-3.992,1.801-8.079,1.628-12.091l38.001-16.968c0.662,0.456,1.346,0.891,2.054,1.297l57.896,33.192
			c4.47,2.563,9.424,3.819,14.354,3.819c1.648,0,3.292-0.147,4.915-0.425c-0.214,43.764-12.929,84.622-34.751,119.188
			C441.984,372.167,435.342,369.864,428.369,370.102z"/>
	</g>
</g>
<g>
</g>
<g>
</g>
<g>
</g>
<g>
</g>
<g>
</g>
<g>
</g>
<g>
</g>
<g>
</g>
<g>
</g>
<g>
</g>
<g>
</g>
<g>
</g>
<g>
</g>
<g>
</g>
<g>
</g>
</svg>
